<svg xmlns="http://www.w3.org/2000/svg" viewBox="0 0 256 226" width="256" height="226">
  <path fill="#41b883" d="M255.153 68.928l-119.846 71.914-119.846-71.914.961-1.548 119.845 71.914L255.153 68.928zM127.98 226c2.187 0 4.374-.274 6.44-.805l112.526-35.426c2.527-.794 4.178-3.256 4.178-5.927V42.137c0-2.67-1.65-5.133-4.177-5.927L134.34.805c-2.067-.532-4.253-.805-6.44-.805s-4.374.273-6.44.805L3.204 36.21c-2.527.794-4.178 3.256-4.178 5.927v141.705c0 2.671 1.651 5.133 4.178 5.927l112.526 35.426c2.066.531 4.253.805 6.44.805z"/>
  <path fill="#35495e" d="M127.98 226c2.187 0 4.374-.274 6.44-.805l112.526-35.426c2.527-.794 4.178-3.256 4.178-5.927V42.137c0-2.67-1.65-5.133-4.177-5.927L134.34.805c-2.067-.532-4.253-.805-6.44-.805s-4.374.273-6.44.805L3.204 36.21c-2.527.794-4.178 3.256-4.178 5.927v141.705c0 2.671 1.651 5.133 4.178 5.927l112.526 35.426c2.066.531 4.253.805 6.44.805z"/>
  <path fill="#fff" d="M127.98 214.289c-2.138 0-4.276-.26-6.335-.776l-103.818-32.418c-2.327-.727-3.837-3.015-3.837-5.519V92.424l114.998 69.009 115.026-69.009v83.156c0 2.504-1.509 4.792-3.837 5.519l-103.846 32.418c-2.059.515-4.197.775-6.335.775zm0-208.172c2.138 0 4.276.26 6.335.776l103.818 32.418c2.327.727 3.837 3.015 3.837 5.519V161.17l-114.998-69.009L10.71 161.17v-83.156c0-2.504 1.509-4.792 3.837-5.519l103.846-32.418c2.059-.515 4.197-.775 6.335-.775z"/>
</svg>